<svg xmlns="http://www.w3.org/2000/svg" viewBox="0 0 503.57 503.57">
  <defs>
    <style>
      .cls-1 {
        fill: #8ab8fa;
      }

      .cls-2 {
        fill: #8b858c;
      }

      .cls-3 {
        fill: #eee;
      }
    </style>
  </defs>
  <g id="Слой_2" data-name="Слой 2">
    <g id="Слой_3" data-name="Слой 3">
      <rect class="cls-1" width="503.57" height="503.57" rx="55"/>
      <g>
        <path class="cls-2" d="M251.78,441.13a187.12,187.12,0,0,1-132.72-54.89c-73.18-73.18-73.18-192.26,0-265.44s192.26-73.18,265.44,0a187.68,187.68,0,0,1,0,265.44h0A187.11,187.11,0,0,1,251.78,441.13Zm0-336.92a148.94,148.94,0,0,0-105.63,43.68c-58.24,58.25-58.24,153,0,211.26s153,58.24,211.26,0h0A149.31,149.31,0,0,0,251.78,104.21Z"/>
        <g>
          <g>
            <path class="cls-3" d="M159.54,134.22c.14.26-1.19,1-3.61,3.59a44.13,44.13,0,0,0-4.55,6c-3.09,4.94-5.77,9.24-5.06,14.11.37,2.57,1.26,2.38,3.14,7.45a56.68,56.68,0,0,1,2.49,9.56c1,4.14,6.85,9.29,28.68,13.23-29.51,6.09-39.3,2.67-42.3-2.23-1.28-2.08-2.64-6.57-6.48-7.66-3.53-1-7.33,1.39-8.84,2.34-5,3.12-6.06,7.06-6.89,6.77-1.7-.58-1.57-20.28,10.95-35.36S159.05,133.3,159.54,134.22Z"/>
            <path class="cls-3" d="M102.2,234.38c.28.09-.15,1.54,0,5.1a43,43,0,0,0,1,7.47c1.31,5.68,2.44,10.61,6.39,13.56,2.09,1.55,2.59.78,7.5,3a57.53,57.53,0,0,1,8.51,5c3.66,2.2,11.42,1.72,29.63-10.93-16.55,25.17-25.9,29.68-31.48,28.34-2.37-.57-6.51-2.79-10-.83-3.2,1.79-4.19,6.16-4.59,7.9-1.3,5.71.7,9.28-.08,9.66-1.62.79-15.46-13.23-17.27-32.75S101.2,234.08,102.2,234.38Z"/>
            <path class="cls-3" d="M132.48,345.76c.26-.14,1,1.19,3.6,3.61a42.18,42.18,0,0,0,6,4.55c4.95,3.09,9.24,5.78,14.11,5.07,2.58-.38,2.39-1.27,7.45-3.15a56.26,56.26,0,0,1,9.56-2.48c4.15-1,9.29-6.86,13.23-28.68,6.09,29.5,2.67,39.3-2.23,42.3-2.08,1.27-6.57,2.63-7.66,6.48-1,3.53,1.39,7.32,2.35,8.84,3.12,4.95,7.05,6.06,6.77,6.88-.59,1.7-20.29,1.57-35.37-10.94S131.56,346.26,132.48,345.76Z"/>
            <path class="cls-3" d="M232.65,403.11c.08-.29,1.53.15,5.09,0a42,42,0,0,0,7.47-1c5.68-1.3,10.61-2.44,13.56-6.39,1.55-2.09.78-2.58,3-7.49a57.27,57.27,0,0,1,5-8.52c2.2-3.66,1.73-11.42-10.92-29.63,25.17,16.56,29.67,25.9,28.33,31.48-.57,2.37-2.79,6.51-.83,10,1.79,3.2,6.16,4.2,7.91,4.59,5.71,1.3,9.27-.7,9.65.09.79,1.61-13.23,15.45-32.75,17.27S232.35,404.1,232.65,403.11Z"/>
          </g>
          <g>
            <path class="cls-3" d="M344,372.83c-.14-.27,1.2-1,3.61-3.6a43.25,43.25,0,0,0,4.55-6c3.09-4.94,5.78-9.23,5.07-14.11-.38-2.57-1.27-2.38-3.14-7.45a55.66,55.66,0,0,1-2.49-9.56c-1-4.14-6.86-9.29-28.68-13.23,29.51-6.09,39.3-2.67,42.3,2.23,1.27,2.08,2.63,6.57,6.48,7.66,3.53,1,7.33-1.39,8.84-2.34,5-3.12,6.06-7.06,6.88-6.77,1.7.58,1.58,20.29-10.94,35.37S344.52,373.74,344,372.83Z"/>
            <path class="cls-3" d="M401.37,272.66c-.29-.09.15-1.54,0-5.1a44.1,44.1,0,0,0-1-7.46c-1.31-5.68-2.45-10.62-6.4-13.56-2.08-1.56-2.58-.79-7.49-3a55.47,55.47,0,0,1-8.52-5c-3.66-2.2-11.42-1.72-29.63,10.93,16.56-25.17,25.9-29.68,31.48-28.34,2.38.57,6.51,2.79,10,.84,3.2-1.8,4.2-6.17,4.6-7.91,1.3-5.71-.71-9.27.08-9.66,1.61-.79,15.46,13.24,17.27,32.75S402.37,273,401.37,272.66Z"/>
            <path class="cls-3" d="M371.09,161.28c-.26.14-1-1.19-3.6-3.61a44.13,44.13,0,0,0-6-4.55c-4.94-3.09-9.23-5.78-14.11-5.07-2.57.38-2.38,1.27-7.45,3.15a57.74,57.74,0,0,1-9.56,2.49c-4.14,1-9.29,6.85-13.22,28.67-6.09-29.5-2.67-39.3,2.22-42.29,2.08-1.28,6.58-2.64,7.66-6.49,1-3.53-1.39-7.32-2.34-8.84-3.12-4.95-7.05-6-6.77-6.88.58-1.7,20.29-1.57,35.37,10.94S372,160.79,371.09,161.28Z"/>
            <path class="cls-3" d="M270.92,103.94c-.09.28-1.54-.16-5.1,0a43,43,0,0,0-7.46,1c-5.68,1.31-10.62,2.44-13.56,6.39-1.56,2.09-.79,2.58-3.05,7.49a55.47,55.47,0,0,1-5,8.52C234.55,131,235,138.78,247.68,157c-25.17-16.55-29.68-25.9-28.34-31.48.58-2.37,2.79-6.51.84-10-1.79-3.2-6.17-4.2-7.91-4.59-5.71-1.3-9.27.7-9.66-.08-.79-1.62,13.24-15.46,32.75-17.27S271.22,102.94,270.92,103.94Z"/>
          </g>
        </g>
        <g>
          <g>
            <path class="cls-3" d="M111.75,131.56c-.69-.86.17-2.67,1.64-5.74,3-6.2,5.92-7.63,8.54-11.53,3.72-5.52,3.76-11.5,3.82-19.46.06-7.1-1.18-9.91-1.45-13.82-.49-6.83,2-17,16-30.55a48.34,48.34,0,0,0-1.64,22.37c1.41,8.2,4.1,9.78,4.91,10.18,2.51,1.24,4.28-.19,9.46-.73,6.51-.68,7.83,1.15,14.66,1.34,10,.26,14.59-3.46,15.52-2.06,1.82,2.73-14.9,18.11-34,31.27C134.52,123,114.22,134.65,111.75,131.56Z"/>
            <path class="cls-3" d="M66.53,266.3c-1.1-.12-1.77-2-2.91-5.22-2.29-6.47-1.21-9.58-2.11-14.2-1.27-6.52-5.47-10.78-11.06-16.45-5-5.07-7.84-6.18-10.8-8.75-5.17-4.49-10.61-13.37-10.28-32.91a48.43,48.43,0,0,0,14.65,17c6.8,4.8,9.82,4,10.68,3.73,2.65-.89,2.89-3.16,6.17-7.2,4.12-5.09,6.35-4.73,11.31-9.43,7.26-6.88,7.87-12.76,9.52-12.43,3.22.64,2.27,23.34-1.93,46.16C76.54,244.11,70.46,266.74,66.53,266.3Z"/>
            <path class="cls-3" d="M129.82,393.55c-.86.69-2.67-.17-5.74-1.63-6.2-3-7.63-5.92-11.53-8.55-5.51-3.71-11.5-3.76-19.46-3.82-7.1-.05-9.91,1.18-13.82,1.46-6.83.48-17-1.95-30.55-16a48.34,48.34,0,0,0,22.37,1.64c8.2-1.41,9.78-4.1,10.18-4.91,1.24-2.5-.19-4.27-.73-9.45-.67-6.52,1.16-7.84,1.34-14.67.26-10-3.46-14.58-2.06-15.52,2.73-1.82,18.11,14.9,31.27,34C121.21,370.78,132.91,391.08,129.82,393.55Z"/>
          </g>
          <g>
            <path class="cls-3" d="M264.56,438.78c-.12,1.1-2,1.76-5.22,2.9-6.47,2.29-9.58,1.21-14.19,2.11-6.53,1.27-10.79,5.47-16.46,11.06-5.06,5-6.18,7.84-8.75,10.8-4.48,5.18-13.37,10.62-32.91,10.29a48.44,48.44,0,0,0,17-14.66c4.81-6.8,4-9.82,3.73-10.67-.89-2.65-3.16-2.89-7.2-6.17-5.09-4.13-4.73-6.36-9.43-11.32-6.88-7.25-12.76-7.87-12.43-9.51.64-3.22,23.34-2.28,46.16,1.92C242.37,428.76,265,434.84,264.56,438.78Z"/>
            <path class="cls-3" d="M391.81,375.48c.69.86-.17,2.67-1.63,5.74-3,6.2-5.92,7.63-8.55,11.54-3.71,5.51-3.76,11.49-3.82,19.45-.05,7.11,1.18,9.91,1.46,13.82.48,6.84-1.95,17-16,30.55a48.44,48.44,0,0,0,1.63-22.37c-1.41-8.2-4.1-9.78-4.91-10.18-2.5-1.24-4.27.19-9.45.73-6.52.68-7.84-1.15-14.67-1.33-10-.27-14.58,3.45-15.52,2.06-1.82-2.73,14.9-18.12,34-31.28C369,384.09,389.34,372.39,391.81,375.48Z"/>
            <path class="cls-3" d="M437,240.74c1.1.13,1.77,2,2.9,5.22,2.29,6.47,1.21,9.58,2.11,14.2,1.28,6.52,5.47,10.78,11.06,16.46,5,5.06,7.84,6.17,10.8,8.74,5.18,4.49,10.62,13.37,10.29,32.91a48.43,48.43,0,0,0-14.66-17c-6.8-4.8-9.81-4-10.67-3.73-2.65.9-2.89,3.16-6.17,7.2-4.13,5.09-6.36,4.73-11.32,9.43-7.25,6.88-7.86,12.76-9.51,12.43-3.22-.64-2.28-23.34,1.93-46.16C427,262.93,433.11,240.3,437,240.74Z"/>
          </g>
          <g>
            <path class="cls-3" d="M373.74,113.49c.87-.69,2.67.17,5.75,1.64,6.19,3,7.63,5.91,11.53,8.54,5.51,3.71,11.49,3.76,19.45,3.82,7.11.05,9.91-1.18,13.82-1.45,6.84-.49,17,1.95,30.55,16a48.3,48.3,0,0,0-22.36-1.64c-8.21,1.41-9.78,4.1-10.19,4.91-1.24,2.5.19,4.28.73,9.46.68,6.51-1.15,7.83-1.33,14.66-.27,10,3.46,14.59,2.06,15.52-2.73,1.82-18.11-14.9-31.28-34C382.35,136.26,370.65,116,373.74,113.49Z"/>
            <path class="cls-3" d="M239,68.26c.13-1.09,2-1.76,5.22-2.9,6.47-2.29,9.58-1.21,14.2-2.11,6.52-1.27,10.78-5.47,16.46-11.06,5.06-5,6.17-7.84,8.74-10.8,4.49-5.17,13.37-10.61,32.92-10.28a48.39,48.39,0,0,0-17,14.65c-4.8,6.8-4,9.82-3.72,10.67.89,2.65,3.15,2.9,7.2,6.18,5.08,4.12,4.72,6.35,9.42,11.31,6.88,7.26,12.76,7.87,12.43,9.52-.64,3.21-23.34,2.27-46.16-1.93C261.19,78.28,238.57,72.2,239,68.26Z"/>
          </g>
        </g>
      </g>
    </g>
  </g>
</svg>
