<?xml version="1.0" standalone="no"?>
<!DOCTYPE svg PUBLIC "-//W3C//DTD SVG 20010904//EN"
 "http://www.w3.org/TR/2001/REC-SVG-20010904/DTD/svg10.dtd">
<svg version="1.0" xmlns="http://www.w3.org/2000/svg"
 width="512.000000pt" height="512.000000pt" viewBox="0 0 512.000000 512.000000"
 preserveAspectRatio="xMidYMid meet">

<g transform="translate(0.000000,512.000000) scale(0.100000,-0.100000)"
fill="#333333" stroke="none">
<path d="M2377 4692 c-14 -16 -17 -43 -17 -174 0 -137 2 -157 18 -171 16 -14
44 -17 184 -17 147 0 167 2 181 18 14 16 17 43 17 174 0 137 -2 157 -18 171
-16 14 -44 17 -184 17 -147 0 -167 -2 -181 -18z"/>
<path d="M2377 4182 c-15 -17 -17 -71 -17 -569 0 -520 1 -551 18 -566 16 -14
44 -17 184 -17 147 0 167 2 181 18 15 17 17 71 17 569 0 520 -1 551 -18 566
-16 14 -44 17 -184 17 -147 0 -167 -2 -181 -18z"/>
<path d="M2040 3680 c-91 -37 -378 -153 -638 -258 -261 -104 -475 -192 -478
-194 -2 -3 -3 -334 -2 -736 l3 -731 195 113 195 113 5 294 c4 256 7 298 23
326 35 65 107 79 214 40 34 -12 228 -103 432 -202 l371 -180 0 -520 c0 -487
-2 -523 -19 -561 -25 -56 -54 -74 -116 -74 -75 1 -162 36 -354 143 l-174 97
-191 -111 c-105 -61 -194 -114 -198 -118 -4 -3 276 -165 622 -359 l630 -352
630 352 c346 194 626 356 622 359 -4 4 -93 57 -198 118 l-191 111 -197 -109
c-197 -109 -262 -134 -344 -134 -31 0 -49 6 -68 24 -54 49 -54 47 -54 608 l0
520 188 92 c602 292 641 310 695 316 65 7 109 -13 134 -60 16 -28 19 -70 23
-326 l5 -294 195 -113 195 -113 3 731 c2 579 0 733 -10 740 -7 4 -114 48 -238
97 -124 49 -408 164 -633 254 l-407 166 2 -217 3 -217 297 -120 c164 -66 294
-123 290 -127 -4 -4 -216 -109 -472 -233 l-465 -226 -220 106 c-121 58 -336
163 -479 233 l-258 127 297 119 c163 66 299 125 301 131 3 6 3 103 2 216 l-3
205 -165 -66z"/>
<path d="M978 1593 c-339 -196 -478 -282 -482 -297 -4 -14 20 -63 75 -157 44
-76 86 -143 94 -149 8 -7 25 -10 38 -8 25 5 919 519 950 546 9 8 17 23 17 33
0 19 -156 289 -174 301 -6 4 -18 8 -26 8 -8 0 -230 -125 -492 -277z"/>
<path d="M3624 1862 c-18 -11 -174 -282 -174 -302 0 -9 8 -24 18 -32 30 -27
924 -541 949 -546 13 -2 30 1 38 8 8 6 51 74 96 151 77 133 80 140 66 163 -16
24 -943 566 -968 566 -8 0 -19 -4 -25 -8z"/>
<path d="M209 1147 c-143 -82 -159 -93 -159 -115 0 -16 141 -263 168 -294 8
-10 22 -18 31 -18 9 0 77 35 151 78 117 67 135 81 138 105 3 20 -18 64 -74
160 -74 128 -96 157 -118 157 -6 0 -68 -33 -137 -73z"/>
<path d="M4748 1208 c-9 -7 -50 -72 -93 -145 -55 -96 -76 -140 -73 -160 3 -24
21 -38 138 -105 74 -43 142 -78 151 -78 23 0 37 19 124 169 66 113 76 137 67
156 -9 20 -263 175 -288 175 -6 0 -17 -6 -26 -12z"/>
</g>
</svg>
