<?xml version="1.0" standalone="no"?>
<!DOCTYPE svg PUBLIC "-//W3C//DTD SVG 20010904//EN"
 "http://www.w3.org/TR/2001/REC-SVG-20010904/DTD/svg10.dtd">
<svg version="1.0" xmlns="http://www.w3.org/2000/svg"
 width="512.000000pt" height="512.000000pt" viewBox="0 0 512.000000 512.000000"
 preserveAspectRatio="xMidYMid meet">

<g transform="translate(0.000000,512.000000) scale(0.100000,-0.100000)"
fill="#333333" stroke="none">
<path d="M3765 4775 c-22 -8 -49 -26 -60 -39 -11 -14 -278 -449 -593 -966
-350 -574 -575 -953 -579 -974 -7 -45 11 -97 45 -128 39 -36 256 -165 291
-173 40 -8 103 10 128 37 20 21 1131 1836 1167 1906 31 59 16 132 -36 178 -30
27 -218 141 -263 160 -42 17 -49 17 -100 -1z m190 -285 c4 -6 -613 -1026
-1017 -1682 l-59 -97 -62 38 c-34 21 -61 43 -60 48 1 6 244 406 539 890 l536
881 59 -35 c33 -20 62 -39 64 -43z"/>
<path d="M152 3885 c-55 -24 -98 -63 -125 -114 l-27 -49 0 -1361 c0 -1321 1
-1363 19 -1399 23 -44 72 -93 121 -118 34 -18 113 -19 2415 -19 l2380 0 40 22
c47 25 95 74 121 123 18 34 19 88 19 1390 l0 1355 -29 53 c-16 28 -44 64 -63
78 -71 54 -68 54 -535 54 l-433 -1 -55 -91 c-30 -50 -57 -95 -58 -100 -2 -4
210 -8 471 -8 446 0 475 -1 490 -18 16 -17 17 -123 17 -1320 0 -1289 0 -1302
-20 -1322 -20 -20 -33 -20 -2345 -20 -2312 0 -2325 0 -2345 20 -20 20 -20 33
-20 1323 0 1251 1 1305 18 1320 17 16 124 17 1330 17 l1311 0 34 53 c18 28 46
73 61 100 l28 47 -1394 0 c-1179 -1 -1398 -3 -1426 -15z"/>
<path d="M465 3581 c-80 -20 -144 -81 -165 -156 -8 -27 -11 -94 -8 -182 3
-135 4 -141 33 -188 22 -36 45 -57 84 -77 l53 -28 315 0 c340 0 368 3 427 51
64 54 76 95 76 265 0 164 -10 202 -66 258 -59 59 -70 61 -409 63 -170 1 -323
-2 -340 -6z m613 -314 l3 -117 -293 2 -293 3 -3 104 c-1 58 0 111 2 118 5 11
61 13 293 11 l288 -3 3 -118z"/>
<path d="M1490 2370 l0 -1030 100 0 100 0 0 1030 0 1030 -100 0 -100 0 0
-1030z"/>
<path d="M1930 3170 l0 -180 100 0 100 0 0 80 0 80 75 0 75 0 0 100 0 100
-175 0 -175 0 0 -180z"/>
<path d="M4240 3250 l0 -100 75 0 75 0 0 -80 0 -80 100 0 100 0 0 180 0 180
-175 0 -175 0 0 -100z"/>
<path d="M700 2870 c-279 -49 -472 -324 -418 -597 22 -109 59 -184 134 -263
102 -108 223 -160 374 -160 92 0 158 17 241 61 162 86 269 265 269 449 0 139
-51 261 -152 363 -119 121 -285 175 -448 147z m164 -205 c151 -40 246 -173
234 -329 -7 -80 -43 -151 -108 -209 -61 -55 -121 -77 -209 -77 -120 0 -233 75
-284 189 -32 70 -30 179 4 251 44 92 122 157 216 179 56 13 83 13 147 -4z"/>
<path d="M2433 2610 c-18 -11 -33 -21 -33 -23 0 -3 -36 -138 -80 -301 -44
-163 -80 -311 -80 -330 0 -73 67 -110 147 -82 132 47 245 27 368 -64 162 -121
257 -152 384 -126 80 17 122 37 246 117 113 73 198 113 300 140 69 19 107 22
273 23 191 1 194 1 213 25 42 51 34 111 -19 148 -26 17 -54 23 -138 28 -257
18 -467 -32 -680 -162 -191 -117 -232 -135 -284 -128 -56 9 -68 15 -160 85
-83 64 -140 96 -216 119 l-50 16 115 105 c183 167 180 181 -68 331 -90 54
-173 99 -185 99 -11 0 -36 -9 -53 -20z m171 -213 c37 -23 67 -46 65 -52 -4 -9
-226 -215 -232 -215 -2 0 15 70 37 155 23 85 46 155 51 155 6 0 41 -20 79 -43z"/>
<path d="M414 1741 c-49 -22 -97 -78 -113 -130 -6 -21 -11 -99 -11 -173 0
-127 2 -137 27 -189 19 -35 43 -64 71 -84 l44 -30 331 -3 c363 -4 385 -1 444
51 62 55 73 91 73 260 0 161 -9 198 -58 250 -63 66 -67 67 -434 67 -302 0
-337 -2 -374 -19z m666 -296 l0 -115 -295 0 -295 0 0 115 0 115 295 0 295 0 0
-115z"/>
<path d="M1930 1550 l0 -180 175 0 175 0 0 100 0 100 -75 0 -75 0 0 80 0 80
-100 0 -100 0 0 -180z"/>
<path d="M4380 1650 l0 -80 -70 0 -70 0 0 -100 0 -100 170 0 170 0 0 180 0
180 -100 0 -100 0 0 -80z"/>
</g>
</svg>
