<?xml version="1.0" standalone="no"?>
<!DOCTYPE svg PUBLIC "-//W3C//DTD SVG 20010904//EN"
 "http://www.w3.org/TR/2001/REC-SVG-20010904/DTD/svg10.dtd">
<svg version="1.0" xmlns="http://www.w3.org/2000/svg"
 width="512.000000pt" height="512.000000pt" viewBox="0 0 512.000000 512.000000"
 preserveAspectRatio="xMidYMid meet">

<g transform="translate(0.000000,512.000000) scale(0.100000,-0.100000)"
fill="#333333" stroke="none">
<path d="M819 4670 c-136 -23 -238 -114 -278 -248 -14 -47 -21 -57 -45 -63
-38 -11 -93 -65 -105 -103 -5 -17 -15 -56 -21 -87 -12 -60 -33 -84 -213 -244
l-57 -50 0 -255 c0 -140 7 -691 15 -1225 8 -533 16 -1091 18 -1240 l2 -270 32
-65 c42 -85 87 -138 137 -161 39 -18 88 -19 973 -19 l932 0 35 -54 c41 -64 68
-91 121 -119 36 -20 55 -22 195 -22 140 0 159 2 195 22 53 28 78 53 120 118
l35 55 932 0 c886 0 935 1 974 19 50 23 95 76 137 161 l32 65 2 280 c2 154 10
717 18 1250 18 1134 19 1439 5 1465 -5 10 -40 42 -77 71 -38 29 -91 76 -119
104 -47 47 -54 59 -69 127 -9 41 -25 89 -36 107 -20 33 -73 71 -100 71 -11 0
-20 17 -28 55 -23 104 -106 193 -218 235 -53 20 -71 22 -203 17 -378 -14 -780
-144 -1373 -445 l-229 -116 -86 48 c-258 142 -639 312 -877 391 -270 90 -634
149 -776 125z m216 -205 c108 -9 348 -60 470 -100 239 -80 703 -287 903 -405
l52 -30 0 -1485 c0 -817 -2 -1485 -5 -1485 -2 0 -60 29 -127 65 -265 139 -548
252 -778 310 -188 48 -492 85 -692 85 -70 0 -82 3 -103 25 l-25 24 0 1453 c0
1421 1 1454 20 1485 31 51 89 74 170 67 25 -2 77 -6 115 -9z m3281 -11 c18 -9
43 -31 54 -49 20 -32 20 -46 20 -1482 l0 -1450 -21 -27 c-19 -24 -26 -26 -97
-26 -106 0 -326 -17 -452 -36 -315 -45 -680 -174 -1047 -370 -56 -30 -105 -54
-108 -54 -3 0 -5 668 -5 1485 l0 1484 73 41 c235 132 621 305 864 386 110 37
345 92 458 107 84 11 228 6 261 -9z m-3919 -3359 c18 -31 65 -72 98 -86 22 -9
93 -12 258 -10 357 3 625 -25 915 -98 127 -33 321 -93 350 -110 27 -16 -1539
-15 -1592 1 -54 16 -128 90 -144 144 -9 32 -12 373 -12 1469 l0 1428 39 42
c22 24 46 63 53 87 11 36 14 -185 18 -1402 4 -1073 8 -1450 17 -1465z m4416
2774 l37 -35 0 -1428 c0 -1097 -3 -1438 -12 -1470 -16 -54 -93 -131 -144 -145
-48 -13 -1617 -15 -1594 -2 29 17 229 80 351 111 289 73 568 103 912 98 161
-2 232 0 258 10 41 14 93 65 108 105 8 19 11 477 12 1460 1 1376 1 1430 18
1382 10 -28 33 -65 54 -86z"/>
<path d="M1165 4173 c6 -5 62 -46 125 -91 124 -88 182 -134 284 -226 l66 -58
133 26 c72 14 174 30 226 35 51 6 96 13 99 15 12 12 -253 129 -410 181 -176
59 -551 143 -523 118z"/>
<path d="M1000 3841 c0 -256 2 -291 15 -291 9 0 66 23 128 51 62 28 160 72
220 97 59 26 107 49 107 52 0 8 -122 109 -295 245 -82 65 -156 122 -162 128
-10 7 -13 -50 -13 -282z"/>
<path d="M2010 3705 c-63 -7 -143 -18 -178 -25 l-62 -13 22 -27 c13 -16 64
-75 113 -132 50 -57 128 -152 175 -211 47 -58 91 -106 98 -106 10 -1 12 55 10
262 l-3 262 -30 2 c-16 0 -82 -5 -145 -12z"/>
<path d="M1499 3581 c-119 -47 -311 -149 -304 -162 4 -5 13 -9 21 -9 25 0 265
-60 359 -89 122 -39 294 -105 367 -142 33 -17 62 -28 64 -26 10 10 -373 450
-400 460 -7 3 -55 -12 -107 -32z"/>
<path d="M1000 2856 c0 -47 4 -88 10 -91 5 -3 71 -15 147 -26 129 -19 383 -82
460 -114 20 -8 39 -15 44 -15 5 0 9 43 9 95 0 80 -3 96 -17 103 -75 38 -504
132 -604 132 l-49 0 0 -84z"/>
<path d="M1830 2658 c0 -93 8 -118 37 -118 7 0 81 -29 164 -65 83 -36 153 -65
155 -65 2 0 4 47 4 104 l0 104 -157 59 c-87 33 -168 63 -180 67 -23 7 -23 6
-23 -86z"/>
<path d="M1010 2551 l0 -108 78 -12 c42 -6 94 -14 115 -17 l37 -6 0 105 c0 71
-4 108 -12 115 -11 8 -161 32 -205 32 -10 0 -13 -28 -13 -109z"/>
<path d="M1340 2494 l0 -109 178 -58 c98 -31 181 -57 185 -57 4 0 6 51 5 113
l-3 112 -145 48 c-80 26 -162 50 -182 53 l-38 7 0 -109z"/>
<path d="M1781 2398 c0 -40 4 -93 7 -117 7 -43 9 -45 57 -62 28 -10 73 -27
102 -38 32 -12 55 -17 58 -11 4 6 3 57 -1 114 l-7 104 -36 16 c-39 17 -171 66
-177 66 -2 0 -4 -33 -3 -72z"/>
<path d="M1010 2249 c0 -61 4 -118 10 -128 6 -12 26 -20 62 -25 29 -3 89 -15
133 -26 44 -11 83 -16 87 -12 4 4 4 63 0 132 l-7 125 -115 22 c-63 11 -127 22
-142 22 l-28 1 0 -111z"/>
<path d="M2068 2243 c4 -85 8 -110 21 -118 29 -18 101 -48 105 -44 2 2 2 54
-1 116 l-6 111 -50 21 c-27 12 -55 21 -62 21 -9 0 -11 -28 -7 -107z"/>
<path d="M1400 2242 c0 -22 3 -80 7 -131 l6 -91 61 -19 c34 -11 64 -16 67 -13
3 4 3 63 0 131 l-6 124 -50 18 c-77 27 -85 25 -85 -19z"/>
<path d="M1630 2133 c0 -43 3 -102 6 -130 7 -52 8 -53 48 -64 101 -27 260 -80
381 -129 44 -18 92 -36 108 -40 l27 -9 0 119 0 118 -40 16 c-21 8 -61 25 -87
37 -87 39 -107 47 -168 69 -82 29 -265 90 -271 90 -2 0 -4 -35 -4 -77z"/>
</g>
</svg>
