<svg id="Emojies" xmlns="http://www.w3.org/2000/svg" viewBox="0 0 503.57 503.57">
  <defs>
    <style>
      .cls-1 {
        fill: #f44d34;
      }

      .cls-2 {
        fill: #eee;
      }
    </style>
  </defs>
  <g id="Maple">
    <rect class="cls-1" width="503.57" height="503.57" rx="55"/>
    <path class="cls-2" d="M240,471.25c.74,3.67,4.85,6.92,16.25,7.66s19.06-1.11,19.36-7.21-4.22-12.92-5-18.07-3.66-39.75-4.4-57.78-1.34-52.41-1.34-52.41L249.88,345s.22,35.72-.52,53.75-3.74,44.45-4.11,51.41C244.92,456.52,238.48,463.55,240,471.25Z" transform="translate(-4.22 -4.22)"/>
    <path class="cls-2" d="M257.47,350.22s-20.62,23.54-35.35,32.38-35.35,19.51-39,16.92,5.14-20.62,5.14-20.62A144.06,144.06,0,0,1,123.36,376c-32.64-9.44-52.15-23.58-50.67-27.65s16.92-6.26,32-12.14,35.35-15.47,35.35-15.47-29-10.52-45.53-20.81-27-20-27.35-23.35,23.17-9.22,23.17-9.22-12.88-8.84-22.47-37.53-12.1-50.45-10.29-52.6c4.37-5.07,43.42,8.44,54.49,14.25,10.66,5.59,27.94,16.66,27.94,16.66s-1.11-22.1,2.59-22.1,13.25,8.85,21.73,19.88,33.5,49.3,39.75,46.38.34-21.4-8.44-39.5A224.47,224.47,0,0,1,178,159.89c-4.37-22.21-1.85-40.49.74-42.68s27.61,17.29,27.61,17.29-2-21.43,2-39.83,7.51-23.91,9.7-24.28S229.11,83,229.11,83s3.41-18.32,10.77-31.2,13.89-18.84,17.18-18.84,13,12.92,17.43,26.54,7,24.91,7,24.91,5.59-11.44,8.07-11.84c2.11-.34,9.55,8,13.21,27.5a197.38,197.38,0,0,1,3.67,33s15.84-16.55,18.77-16.92S335.49,134.87,330,161s-19.88,51.38-23.21,65-6.26,27-.74,28.46,11.1-15.17,22.87-33.61S356.81,183.06,359,184.5s5.52,8.48,6.26,12.14a100.34,100.34,0,0,1,1.11,10.66s16.91-11.4,31.65-16.91,47.86-17.66,54.85-11.77-5.51,37.53-12.88,53.74-23.54,40.46-23.54,40.46,22,4.22,21.65,7.51-18.32,18.1-34.53,26.58-36.87,15.29-36.87,15.29,9.22,6.25,30.91,13.25,39.75,9.21,41.23,12.88-8.47,16.54-41.6,25.39-70.07,3.92-71.92,5.74,9,16.32,6,20.39-22.83-1.55-38.27-14.73A392.67,392.67,0,0,1,257.47,350.22Z" transform="translate(-4.22 -4.22)"/>
  </g>
</svg>
