<svg id="Emojies" xmlns="http://www.w3.org/2000/svg" viewBox="0 0 503.57 503.57">
  <defs>
    <style>
      .cls-1 {
        fill: #333;
      }

      .cls-2 {
        fill: #f6f6f6;
      }
    </style>
  </defs>
  <rect class="cls-1" width="503.57" height="503.57" rx="55"/>
  <path class="cls-2" d="M414.69,271.36c-24.52,32-43.48,39.52-73.37,65.78-23.44,20.6-54.4,53.43-82.56,105.23a3.09,3.09,0,0,1-5.43,0c-28.16-51.8-59.12-84.63-82.56-105.23-29.89-26.26-48.85-33.75-73.37-65.78-18-23.57-40.79-53.3-39.8-93.63.89-36.61,21.48-88.19,70.78-104.8C174.13,57.52,228,77.8,256,123.53c28-45.73,81.92-66,127.67-50.6,49.3,16.61,69.89,68.19,70.78,104.8C455.47,218.06,432.73,247.79,414.69,271.36Z" transform="translate(-4.22 -4.22)"/>
</svg>
