<svg xmlns="http://www.w3.org/2000/svg" viewBox="0 0 999.03 1416.43">
  <defs>
    <style>
      .cls-1 {
        fill: #f6f6f6;
      }

      .cls-2 {
        fill: #333;
      }
    </style>
  </defs>
  <g id="Слой_2" data-name="Слой 2">
    <g id="Слой_5" data-name="Слой 5">
      <g>
        <path class="cls-1" d="M477.82,922.14c-8-13.92-16.29-27.77-24.72-41.16-20.76-33-64-101.62-127-166.29-46.25-47.41-121-111.09-170.14-145l-.67-.47a271.83,271.83,0,0,1-58.37-53.44,278.34,278.34,0,0,1-33.93-53.75l-.68-1.36c-27-53.9-40-113.85-36.74-168.8,1.76-29.24,17-178.28,144.11-241.57C203.4,33.52,240.43,25,279.7,25a289.08,289.08,0,0,1,89.72,14.58c63.48,21.05,105.45,61,130.1,92.06,24.64-31.07,66.61-71,130.09-92.06A289.14,289.14,0,0,1,719.33,25c39.27,0,76.31,8.52,110.07,25.33C956.51,113.61,971.75,262.66,973.51,291.9c3.31,55-9.74,114.9-36.73,168.79l-.62,1.24a278.1,278.1,0,0,1-34,53.88,271.83,271.83,0,0,1-58.37,53.44l-.64.45C794,603.61,719.22,667.29,673,714.69,609.89,779.36,566.69,848,545.93,881c-8.43,13.39-16.75,27.24-24.72,41.16L499.52,960Z"/>
        <path class="cls-2" d="M719.33,50c29.87,0,64.3,5.47,98.93,22.71,118.35,58.92,129.2,202.45,130.3,220.69,4.63,76.92-26.08,140-34.13,156.09-5,10-14.28,29.15-31.67,50.55a248.4,248.4,0,0,1-53.82,49.09c-50.11,34.54-126.49,99.55-173.85,148.1C591.43,762.49,547.54,831.5,524.78,867.66c-10.72,17-19.26,31.58-25.26,42.05-6-10.47-14.54-25-25.26-42.05C451.5,831.5,407.61,762.49,344,697.23c-47.36-48.55-123.74-113.56-173.85-148.1A248.4,248.4,0,0,1,116.28,500c-17.39-21.4-26.66-40.56-31.67-50.55-8-16.07-38.76-79.17-34.13-156.09,1.1-18.24,12-161.77,130.3-220.69C215.39,55.48,249.84,50,279.71,50a264.51,264.51,0,0,1,81.85,13.31c86.29,28.61,127.85,95,138,112.31,10.11-17.28,51.67-83.7,138-112.31A264.45,264.45,0,0,1,719.33,50m0-50h0a314.45,314.45,0,0,0-97.59,15.85A297.54,297.54,0,0,0,504.65,88.28c-1.73,1.73-3.44,3.47-5.13,5.24-1.7-1.77-3.41-3.51-5.14-5.24A297.54,297.54,0,0,0,377.29,15.85,314.43,314.43,0,0,0,279.71,0c-43.18,0-84,9.4-121.22,28A258.46,258.46,0,0,0,71.65,98.19C52.64,121.88,37,149.48,25,180.24A380.65,380.65,0,0,0,.57,290.39c-2.32,38.49,2.48,78.21,14.27,118.06A380.93,380.93,0,0,0,39.9,471.89l.68,1.35a300.44,300.44,0,0,0,36.89,58.33A295.77,295.77,0,0,0,141,589.83l.63.44h0l0,0c47.24,32.56,121.9,96.19,166.43,141.85C369.39,794.92,411.64,862,431.94,894.3c8.24,13.09,16.38,26.64,24.19,40.27l43.39,75.7,43.38-75.7c7.81-13.63,16-27.18,24.19-40.27,20.3-32.26,62.55-99.38,123.79-162.15,44.53-45.66,119.19-109.29,166.43-141.85l0,0h0l.63-.44a295.77,295.77,0,0,0,63.57-58.26,300.19,300.19,0,0,0,37-58.47l.62-1.23a380,380,0,0,0,25.05-63.42c11.79-39.85,16.59-79.57,14.28-118A381,381,0,0,0,974,180.24c-11.93-30.76-27.61-58.36-46.62-82.05A258.46,258.46,0,0,0,840.54,28C803.28,9.4,762.5,0,719.33,0Z"/>
      </g>
      <g>
        <path class="cls-2" d="M499.52,1391.43a113.07,113.07,0,0,1-78.68-31.62c-.28-.26-.56-.54-.85-.82-15-14.69-34.5-42-41.66-88.41-9.36-60.71,10.33-106.73,33.12-160,9.72-22.71,19.77-46.19,29.28-74a690.39,690.39,0,0,0,31.06-135.23,27.95,27.95,0,0,1,55.45,0,690,690,0,0,0,31.07,135.24c9.51,27.85,19.55,51.33,29.27,74,22.79,53.29,42.48,99.3,33.12,160C613.54,1317,594.08,1344.3,579,1359l-.86.83A113,113,0,0,1,499.52,1391.43Z"/>
        <path class="cls-1" d="M499.52,901.87a2.87,2.87,0,0,1,2.93,2.58,709.31,709.31,0,0,0,32.2,140.15c32.64,95.59,73.17,145.46,61.35,222.17-7.07,45.86-27.66,67.73-34.44,74.35l-.68.65a88.68,88.68,0,0,1-122.73,0c-.23-.21-.45-.43-.67-.65-6.78-6.62-27.37-28.49-34.44-74.35-11.82-76.71,28.71-126.58,61.35-222.17a709.42,709.42,0,0,0,32.19-140.15,2.88,2.88,0,0,1,2.94-2.58m0-50A52.86,52.86,0,0,0,447,898.12a665.33,665.33,0,0,1-29.92,130.33c-9.21,27-19.07,50-28.6,72.29-11.6,27.11-22.56,52.72-29.59,79.69-8.46,32.46-10.14,62.32-5.26,94,8.21,53.26,31.14,85.14,48.92,102.51.32.3.65.62,1,.94a138.7,138.7,0,0,0,192,0l1-1c17.77-17.35,40.7-49.23,48.91-102.49,4.88-31.64,3.21-61.5-5.26-94-7-27-18-52.58-29.59-79.69-9.53-22.29-19.39-45.33-28.6-72.3A665.07,665.07,0,0,1,552,898.12a52.86,52.86,0,0,0-52.52-46.25Z"/>
      </g>
    </g>
  </g>
</svg>
