<svg id="Слой_5" data-name="Слой 5" xmlns="http://www.w3.org/2000/svg" viewBox="0 0 999.62 1417.02">
  <defs>
    <style>
      .cls-1 {
        fill: #f6f6f6;
      }

      .cls-2 {
        fill: #333;
      }
    </style>
  </defs>
  <g>
    <path class="cls-1" d="M2048,1473.72a32,32,0,0,1-28.12-16.71c-49.74-91.51-110.85-169.44-181.64-231.63-22.36-19.64-41.79-34.4-60.58-48.67-37.73-28.66-70.32-53.41-109-104-41.27-53.92-97.8-127.77-95.35-228,1.21-49.78,16.69-103.63,42.47-147.75,32.07-54.87,78.73-93.89,135-112.83a247.6,247.6,0,0,1,79.25-12.87c83.52,0,164.2,40.56,218.06,107.82,53.86-67.26,134.54-107.82,218.06-107.82a247.6,247.6,0,0,1,79.25,12.87c56.22,18.94,102.88,58,135,112.83,25.78,44.12,41.26,98,42.47,147.75,2.45,100.23-54.08,174.08-95.35,228-38.72,50.59-71.31,75.34-109,104-18.79,14.27-38.22,29-60.58,48.67-70.79,62.19-131.9,140.12-181.64,231.63A32,32,0,0,1,2048,1473.72Z" transform="translate(-1548.19 -546.26)"/>
    <path class="cls-2" d="M2266.06,596.26a222.93,222.93,0,0,1,71.27,11.56c111.72,37.65,158.39,154.53,160.41,237.5,2.23,91.41-49.32,158.77-90.21,212.19-55.56,72.59-98.53,89.58-166.27,149.09-53.13,46.67-123.29,121.08-187.1,238.47a7,7,0,0,1-12.32,0c-63.81-117.39-134-191.8-187.1-238.47-67.74-59.51-110.71-76.5-166.27-149.09-40.89-53.42-92.44-120.78-90.21-212.19,2-83,48.69-199.85,160.41-237.5a222.93,222.93,0,0,1,71.27-11.56c84,0,168.71,45.71,218.06,126.22,49.35-80.5,134.09-126.21,218.06-126.22m0-50v0c-50.54,0-101.27,13.65-146.71,39.44A316.24,316.24,0,0,0,2048,641.22a315.45,315.45,0,0,0-71.36-55.52c-45.44-25.8-96.17-39.44-146.7-39.44a272.46,272.46,0,0,0-87.23,14.18c-62,20.9-113.4,63.75-148.55,123.91a339,339,0,0,0-33.89,80.85,331.86,331.86,0,0,0-12,78.9c-1.19,49.1,10,96.26,34.33,144.17,19.81,39.07,44.44,71.25,66.17,99.63,40.77,53.27,76.23,80.2,113.77,108.72,18.44,14,37.51,28.49,59.2,47.54,68.57,60.24,127.84,135.87,176.17,224.79a57,57,0,0,0,100.18,0c48.33-88.92,107.6-164.55,176.17-224.79,21.69-19.05,40.76-33.53,59.2-47.54,37.54-28.52,73-55.45,113.77-108.72,21.73-28.38,46.36-60.56,66.17-99.63,24.29-47.91,35.52-95.07,34.33-144.17a331.86,331.86,0,0,0-12-78.9,338.62,338.62,0,0,0-33.89-80.85c-35.15-60.16-86.52-103-148.54-123.91a272.53,272.53,0,0,0-87.22-14.18Z" transform="translate(-1548.19 -546.26)"/>
  </g>
  <g>
    <path class="cls-2" d="M2048,1938.29a113.07,113.07,0,0,1-78.68-31.62l-.84-.82c-15-14.69-34.51-42-41.67-88.41-9.35-60.71,10.33-106.73,33.13-160,9.71-22.71,19.76-46.19,29.27-74a690.33,690.33,0,0,0,31.06-135.24,28,28,0,0,1,55.46,0,690.33,690.33,0,0,0,31.06,135.24c9.51,27.86,19.56,51.34,29.27,74,22.8,53.28,42.48,99.3,33.13,160-7.16,46.44-26.62,73.72-41.69,88.43l-.86.83A113,113,0,0,1,2048,1938.29Z" transform="translate(-1548.19 -546.26)"/>
    <path class="cls-1" d="M2048,1448.72a2.87,2.87,0,0,1,2.93,2.59,709.31,709.31,0,0,0,32.2,140.15c32.64,95.59,73.17,145.46,61.35,222.17-7.07,45.86-27.66,67.73-34.44,74.35l-.67.65a88.69,88.69,0,0,1-122.74,0l-.67-.65c-6.78-6.62-27.37-28.49-34.44-74.35-11.82-76.71,28.71-126.58,61.35-222.17a709.31,709.31,0,0,0,32.2-140.15,2.87,2.87,0,0,1,2.93-2.59m0-50a52.86,52.86,0,0,0-52.53,46.26,664.78,664.78,0,0,1-29.92,130.33c-9.2,27-19.06,50-28.6,72.29-11.6,27.11-22.55,52.72-29.59,79.69-8.46,32.46-10.13,62.31-5.26,94,8.21,53.26,31.14,85.15,48.93,102.51l1,.94a138.68,138.68,0,0,0,192,0l1-1c17.77-17.35,40.7-49.24,48.91-102.49,4.87-31.65,3.2-61.5-5.26-94-7-27-18-52.58-29.59-79.69-9.54-22.29-19.4-45.33-28.6-72.3A664.51,664.51,0,0,1,2100.53,1445a52.86,52.86,0,0,0-52.53-46.26Z" transform="translate(-1548.19 -546.26)"/>
  </g>
</svg>
